<svg xmlns="http://www.w3.org/2000/svg" width="646.685" height="328.189" viewBox="0 0 646.685 328.189">
  <g id="Group_1197" data-name="Group 1197" transform="translate(-102.479 -146.496)">
    <path id="tail_1_" d="M34.611,2.123C48.93-2.684,65.626.544,84.6,13.123c28.4,18.8,36.96,61.854,22.171,102.074a133.337,133.337,0,0,0-5.461,18.619,1.52,1.52,0,0,1-2.974-.631,136.349,136.349,0,0,1,5.583-19.039c14.345-39.011,6.079-80.568-21-98.491C64.678,3.561,48.937.518,35.58,5,24.752,8.637,15.815,17.138,9.068,28.769,3.579,38.2,1.64,50.126,4.057,56.479c1.045,2.746,2.679,3.868,4.961,3.4,2.948-.6,6.857-3.689,11.414-9.413l.214-.27C30.921,37.185,40.4,31.45,50.129,32.161c8.642.632,17.185,6.186,27.828,17.162,5.838,6.01,7.787,14.56,6.544,25.707l-.076.657c-1.063,8.789-3.927,18.755-8.968,32.567a1.52,1.52,0,0,1-2.856-1.04l.543-1.5c4.689-13,7.34-22.448,8.3-30.71l.036-.313c1.152-10.33-.6-18-5.706-23.257l-.608-.623c-9.881-10.07-17.708-15.072-25.26-15.624-8.456-.619-16.99,4.486-26.582,16.522l-.291.367c-5.052,6.409-9.55,9.994-13.409,10.779-3.88.79-6.875-1.266-8.409-5.3-2.778-7.3-.69-20.151,5.223-30.313C13.525,15.029,22.992,6.024,34.611,2.123Z" transform="translate(457.768 146.496)" fill="#fff"/>
    <g id="cat_1_" transform="translate(264.214 242.638)">
      <ellipse id="eye_5_" cx="6.986" cy="4.408" rx="6.986" ry="4.408" transform="translate(130.578 63.953) rotate(-87.491)" fill="#fff"/>
      <ellipse id="eye_II_1_" cx="6.986" cy="4.408" rx="6.986" ry="4.408" transform="translate(96.759 66.185) rotate(-87.491)" fill="#fff"/>
      <g id="nose_and_mouth_1_" transform="translate(107.063 68.794)">
        <path id="Path" d="M.594,3.24,6.522,8.352a2.393,2.393,0,0,0,3.141-.1L15.237,3.29C16.554,2.075,15.693.2,13.818.152L2.367,0C.391,0-.774,2.075.594,3.24Z" transform="translate(1.94)" fill="#fff"/>
        <path id="Path-2" data-name="Path" d="M9.528,0a1.519,1.519,0,0,1,1.466,1.571A19.347,19.347,0,0,1,7.881,10.5C5.4,14.015,2.061,14,.122,9.453a1.52,1.52,0,0,1,2.8-1.19l.1.23c.859,1.955,1.224,1.9,2.377.262a16.436,16.436,0,0,0,2.561-7.29A1.519,1.519,0,0,1,9.439,0Z" transform="translate(0 4.658)" fill="#fff"/>
        <path id="Path-3" data-name="Path" d="M1.581,0A1.519,1.519,0,0,1,3.047,1.571,21.666,21.666,0,0,0,4.592,9.846a3.555,3.555,0,0,0,.612.939l.1.09a.086.086,0,0,1,.016.019v0a.5.5,0,0,0,.1-.046l.047-.029a2.613,2.613,0,0,0,.495-.443,11.414,11.414,0,0,0,1.56-2.458,1.52,1.52,0,0,1,2.716,1.364C8.822,12.093,7.424,13.636,5.79,13.9c-1.727.28-3.012-.836-3.932-2.728A24.446,24.446,0,0,1,.009,1.465,1.519,1.519,0,0,1,1.492,0Z" transform="translate(7.694 4.658)" fill="#fff"/>
      </g>
      <path id="ear_line_1_" d="M6.322,3.4C15.067-.744,24.312-1.494,33,3.368A29.2,29.2,0,0,1,36.6,5.762a1.519,1.519,0,1,1-1.862,2.4,26.163,26.163,0,0,0-3.23-2.146c-7.689-4.305-15.946-3.635-23.885.126A34.858,34.858,0,0,0,3.8,8.253c-.325.208-.616.4-.872.58l-.217.153-.258.189A1.519,1.519,0,1,1,.59,6.774l.13-.1c.309-.231.794-.569,1.44-.981A37.884,37.884,0,0,1,6.322,3.4Z" transform="translate(62.829 18.753)" fill="#fff"/>
      <path id="Path-4" data-name="Path" d="M103.466,123.364H43.119a43.756,43.756,0,0,1,29.844-20.5c-9.019-10.681-11.6-21.109-10.742-30.373-2.027-.557-4.155-1.012-6.435-1.417-15.91-2.531-30.1,1.772-42.258,12.757a1.61,1.61,0,0,1-1.013.4,1.437,1.437,0,0,1-1.115-.506,1.513,1.513,0,0,1,.1-2.126C27.513,67.073,44.741,66.263,56.344,68.085c2.229.354,4.307.81,6.283,1.316a40.681,40.681,0,0,1,1.165-4.91A69.538,69.538,0,0,0,57.1,61.555c-15.15-5.518-29.895-4-43.879,4.455a1.511,1.511,0,1,1-1.571-2.582c18.494-11.187,35.569-8.707,46.615-4.657a56.281,56.281,0,0,1,6.536,2.835A52.445,52.445,0,0,1,75.75,44.445c-4.966-13.415-21.382-17.869-18.7-21.008,6.739-7.948,41.3-29.36,64.907,5.923l10.488-1.417C118.413,10.63,99.209,0,78.081,0,34.961,0,0,44.293,0,98.964v42.42H156.161V127.008C140.454,129.236,121.1,129.388,103.466,123.364Z" transform="translate(0 0)" fill="#fff"/>
      <g id="paws_lines_1_" transform="translate(55.127 105.899)">
        <path id="Path-5" data-name="Path" d="M22.009,0a1.519,1.519,0,1,1,.065,3.037c-4.658.1-9.25,2.87-13.535,7.486a44.557,44.557,0,0,0-4.2,5.3c-.375.553-.708,1.071-1,1.543l-.122.2c-.11.181-.2.342-.284.478l-.088.154A1.52,1.52,0,0,1,.189,16.731l.144-.253c.061-.1.135-.23.221-.374l.067-.112c.343-.566.745-1.2,1.2-1.872A47.557,47.557,0,0,1,6.309,8.457C11.1,3.3,16.364.121,22.009,0Z" transform="translate(0 0)" fill="#fff"/>
        <path id="Path-6" data-name="Path" d="M22.009,0a1.519,1.519,0,1,1,.065,3.037c-4.658.1-9.25,2.87-13.535,7.486a44.557,44.557,0,0,0-4.2,5.3c-.375.553-.708,1.071-1,1.543l-.122.2c-.11.181-.2.342-.284.478l-.088.154A1.52,1.52,0,0,1,.189,16.731l.144-.253c.061-.1.135-.23.221-.374l.067-.112c.343-.566.745-1.2,1.2-1.872A47.557,47.557,0,0,1,6.309,8.457C11.1,3.3,16.364.121,22.009,0Z" transform="translate(14.542 0)" fill="#fff"/>
      </g>
    </g>
    <path id="base_2_" d="M1.52,0A1.52,1.52,0,0,1,3.038,1.429l0,.089V90.207H94.345V1.721A1.519,1.519,0,0,1,95.776.205l.089,0a1.52,1.52,0,0,1,1.517,1.429l0,.089v90a1.519,1.519,0,0,1-1.431,1.516l-.089,0H1.52A1.52,1.52,0,0,1,0,91.815l0-.089V1.519A1.519,1.519,0,0,1,1.52,0Z" transform="translate(386.326 381.442)" fill="#fff"/>
    <rect id="flap_1_" width="236.623" height="18.021" transform="translate(183.601 366.002)" fill="#cdbca5"/>
    <g id="shape_6_" transform="translate(342.193 242.638)">
      <path id="Shape" d="M234.242,141.385H78.08V98.964a125.551,125.551,0,0,0-1.586-19.949,118.545,118.545,0,0,0-4.55-18.579,109.545,109.545,0,0,0-7.2-16.811A98.436,98.436,0,0,0,55.21,28.981,86.238,86.238,0,0,0,43.654,16.9,74.822,74.822,0,0,0,30.391,7.775,66.334,66.334,0,0,0,15.735,2.01,62.733,62.733,0,0,0,0,0H156.11a62.733,62.733,0,0,1,15.735,2.01A66.344,66.344,0,0,1,186.5,7.775,74.854,74.854,0,0,1,199.767,16.9a86.3,86.3,0,0,1,11.56,12.083,98.536,98.536,0,0,1,9.541,14.645,109.678,109.678,0,0,1,7.208,16.811,118.706,118.706,0,0,1,4.563,18.578,125.715,125.715,0,0,1,1.6,19.949ZM27.767,3.037h0a75.379,75.379,0,0,1,15.872,9.839A87.921,87.921,0,0,1,57.61,27.082C72.771,46.332,81.121,71.86,81.121,98.964v39.383h150.03V98.964a122.14,122.14,0,0,0-1.529-19.31,115.538,115.538,0,0,0-4.382-18,106.8,106.8,0,0,0-6.931-16.293,95.8,95.8,0,0,0-9.174-14.2,83.576,83.576,0,0,0-11.112-11.722,72.048,72.048,0,0,0-12.745-8.854,63.38,63.38,0,0,0-14.073-5.6,59.519,59.519,0,0,0-15.1-1.952H27.767Z" transform="translate(0 0)" fill="#fff"/>
    </g>
    <g id="whiskers_1_" transform="translate(407.606 297.979)">
      <path id="Path-7" data-name="Path" d="M34.953.16C45.608-.681,56.308,1.762,66.808,8.1a1.519,1.519,0,1,1-1.573,2.6C55.286,4.694,45.222,2.4,35.193,3.188a55.452,55.452,0,0,0-22.41,6.97,62,62,0,0,0-7.564,4.9l-.5.381c-.562.437-1.063.846-1.5,1.221L3,16.855l-.437.39A1.519,1.519,0,1,1,.48,15.029l.262-.238c.111-.1.247-.218.406-.354l.1-.084c.607-.518,1.319-1.092,2.131-1.709A65.021,65.021,0,0,1,11.314,7.5,58.45,58.45,0,0,1,34.953.16Z" transform="translate(0.203 0)" fill="#fff"/>
      <path id="Path-8" data-name="Path" d="M30.2.013A50.8,50.8,0,0,1,56.91,6.752a58.459,58.459,0,0,1,10.234,7.474A1.519,1.519,0,1,1,65.1,16.477a55.422,55.422,0,0,0-9.7-7.088A47.769,47.769,0,0,0,30.263,3.049,59,59,0,0,0,10.634,6.995,59.489,59.489,0,0,0,4.5,9.713l-.454.237q-.439.232-.817.444l-.53.3c-.18.1-.3.179-.369.221A1.519,1.519,0,1,1,.711,8.346L1,8.173q.149-.089.354-.207c.5-.289,1.089-.609,1.755-.952a62.517,62.517,0,0,1,6.45-2.859A62,62,0,0,1,30.2.013Z" transform="translate(0 11.973)" fill="#fff"/>
    </g>
    <g id="flag_1_" transform="translate(524.601 305.864)">
      <g id="Group" transform="translate(98.449 1.468)">
        <path id="Shape-2" data-name="Shape" d="M38.2,72.541v0h0L17.937,46.875,0,69.655V0H38.711L38.2,72.54ZM19.355,15.288a8.557,8.557,0,0,0-3.363.683,8.751,8.751,0,0,0-4.617,4.613,8.535,8.535,0,0,0-.684,3.36v6.479a8.534,8.534,0,0,0,.684,3.36A8.752,8.752,0,0,0,15.992,38.4a8.617,8.617,0,0,0,6.726,0,8.752,8.752,0,0,0,4.617-4.613,8.535,8.535,0,0,0,.684-3.36V23.944a8.535,8.535,0,0,0-.684-3.36,8.751,8.751,0,0,0-4.617-4.613A8.558,8.558,0,0,0,19.355,15.288Z" transform="translate(0 0)" fill="#cdbca5"/>
        <path id="Path-9" data-name="Path" d="M4.358,0A4.355,4.355,0,0,0,0,4.353v6.53a4.358,4.358,0,0,0,8.715,0V4.4A4.334,4.334,0,0,0,4.358,0Z" transform="translate(14.998 19.54)" fill="#cdbca5"/>
      </g>
      <g id="line_9_" transform="translate(0 0)">
        <path id="Path-10" data-name="Path" d="M149.169,0a1.519,1.519,0,0,1,.089,3.035l-.089,0H1.52A1.519,1.519,0,0,1,1.431,0L1.52,0Z" transform="translate(0 0)" fill="#fff"/>
        <path id="Path-11" data-name="Path" d="M0,.5H147.649" transform="translate(1.52 1.019)" fill="#fff"/>
      </g>
    </g>
    <path id="line_8_" d="M645.165,0a1.519,1.519,0,0,1,.089,3.035l-.089,0H1.52A1.519,1.519,0,0,1,1.431,0L1.52,0Z" transform="translate(102.479 471.648)" fill="#fff"/>
  </g>
</svg>
